<?xml version="1.0" encoding="utf-8"?>
<!-- Generator: Adobe Illustrator 24.3.0, SVG Export Plug-In . SVG Version: 6.00 Build 0)  -->
<svg version="1.1" xmlns="http://www.w3.org/2000/svg" xmlns:xlink="http://www.w3.org/1999/xlink" x="0px" y="0px"
	 viewBox="0 0 465.57 124.6" style="enable-background:new 0 0 465.57 124.6;" xml:space="preserve">
<style type="text/css">
	.st0{fill:none;}
	.st1{fill:#4BB0EB;}
	.st2{fill:#1C75BC;}
	.st3{fill:#EBB000;}
	.st4{fill:url(#SVGID_1_);}
	.st5{fill:url(#SVGID_2_);}
	.st6{fill:url(#SVGID_3_);}
</style>
<g id="BG">
</g>
<g id="graphics">
	<g>
		<path class="st0" d="M50.62,55.27"/>
		<path class="st1" d="M102.84,5.85C84.43-6.02,57.92,8.87,43.62,39.1c-0.89,1.88-2.82,6.14-3.57,8.05c0,0,5.81-2.86,6.05-3.37
			c0.31-0.65,1.73-3.66,2.05-4.3C61.33,13.26,84.13,0.22,99.16,9.91c15.39,9.92,16.01,40.16,2.99,67.67
			c-13.01,27.51-34.72,41.88-50.12,31.96c-6.3-4.06-10.41-11.61-12.2-20.99c-1.57,0.2-3.08,0.03-4.19-0.18
			c1.97,11.88,7.17,21.65,15.4,26.96c18.4,11.86,44.92-3.03,59.22-33.26C124.57,51.84,121.24,17.71,102.84,5.85z"/>
		<g>
			<path class="st2" d="M38.5,62.1c-6.68,0-12.1,5.36-12.1,11.97c0,6.61,5.42,11.97,12.1,11.97c6.69,0,12.1-5.36,12.1-11.97
				C50.61,67.45,45.19,62.1,38.5,62.1z"/>
			<g>
				<path class="st2" d="M38.5,59.21c8.27,0,14.99,6.67,14.99,14.86c0,2.72-0.75,5.26-2.04,7.46h36.96
					c-12.11,20.23-26.8,24.32-35.58,19.63c-7.38-3.94-9.56-11.03-9.93-12.47c0.63,2.74,1.36,5.33,2.27,7.71
					c3.29,7.76,9.29,13.4,17.52,13.4c15.61,0,29.77-18.47,36.86-33.45c12.47-26.36,11.91-55.07-1.95-64
					c-12.03-7.75-29.95,1.5-42.39,20.65C76.9,3.39,97.58,9.26,101.35,29.33c0.44,2.37,0.67,4.93,0.7,7.63
					c-5.33-0.75-10.14-1.2-14.44-1.46c-16.94-1-16.94,1.75-42.02,16C13.47,51.82,2.47,64.65,2.47,64.65v3.29
					c2.85-1.13,8.72-3.04,15.84-3.04l-5.28,10.35c0,0-6.93,0.87-10.56,1.55v4.71h23.09c-1.29-2.19-2.04-4.74-2.04-7.46
					C23.51,65.87,30.24,59.21,38.5,59.21z M77.66,40.7c4.08-0.83,13.04-0.47,24.23,1.2c-0.25,3.48-0.81,7.13-1.64,10.86
					c-10.59,0.15-20.31-0.19-29.69-0.04c0.69-1.15,1.07-2.59-0.22-3.45c-1.68-1.12-4.61,0.7-6.81,3.68
					c-3.31,0.17-6.59,0.43-9.88,0.84C53.66,53.79,69.71,42.33,77.66,40.7z"/>
			</g>
		</g>
		<g>
			<path class="st3" d="M139.63,61.96c-6.69,0-12.11,5.42-12.11,12.1c0,6.68,5.42,12.1,12.11,12.1c6.69,0,12.1-5.42,12.1-12.1
				C151.73,67.38,146.31,61.96,139.63,61.96z"/>
			<path class="st3" d="M166.45,63.51c-1.39,0.16-3.85,0.3-6.5-0.17c-4.07-0.72-5.94-5.33-5.94-5.33h11.38
				c-0.32-1.21-0.7-2.53-1.14-4c-13.7-5.39-25.86-9.26-36.6-12.04c-0.75-15.43-6.43-28.48-16.64-34.96c-1.58-1-3.21-1.79-4.89-2.41
				c9.84,7.34,14.44,19.99,15.63,32.26c1,10.21-0.18,21.18-3.33,31.92c-1.43,4.92-3.28,9.79-5.51,14.53
				c-9.5,20.09-24.46,34.14-39.7,37.95c15.23-0.4,34.71-13.42,46.52-39.74c9.26,0,5.13,0,6.93,0c-1.27-2.2-2-4.74-2-7.46
				c0-8.27,6.73-14.99,14.99-14.99c8.27,0,14.99,6.73,14.99,14.99c0,2.71-0.74,5.25-2,7.46c4.94,0-4.89,0,6.34,0
				c1.87-7.63,6.86-8.69,7.34-12.08C166.6,67.27,166.64,65.41,166.45,63.51z M130.02,50.89c-0.83-0.17-1.65-0.34-2.46-0.49
				c0.07-1.09,0.12-2.16,0.14-3.23c3.53,0.95,7.1,2,10.64,3.16C135.22,51.01,135.47,52.01,130.02,50.89z"/>
		</g>
	</g>
	<g>
		<path class="st2" d="M202.57,44.29h-11.92v-7.97c0-2.32-0.13-3.76-0.38-4.34c-0.25-0.57-0.82-0.86-1.68-0.86
			c-0.98,0-1.6,0.35-1.87,1.05c-0.26,0.7-0.4,2.21-0.4,4.53v21.3c0,2.23,0.13,3.68,0.4,4.36s0.86,1.02,1.78,1.02
			c0.89,0,1.47-0.34,1.74-1.02c0.27-0.68,0.41-2.28,0.41-4.8v-5.76h11.92v1.79c0,4.75-0.33,8.11-1,10.1
			c-0.67,1.99-2.15,3.73-4.45,5.22c-2.29,1.49-5.12,2.24-8.48,2.24c-3.49,0-6.37-0.63-8.64-1.9s-3.77-3.02-4.5-5.25
			s-1.1-5.6-1.1-10.1v-13.4c0-3.3,0.11-5.78,0.34-7.43c0.23-1.65,0.9-3.24,2.03-4.77c1.12-1.53,2.68-2.73,4.67-3.61
			c1.99-0.88,4.28-1.32,6.87-1.32c3.51,0,6.41,0.68,8.69,2.04c2.28,1.36,3.79,3.05,4.5,5.08s1.08,5.18,1.08,9.46V44.29z"/>
		<path class="st2" d="M227.46,24.32l6.82,45.85h-12.18l-0.64-8.24h-4.26l-0.72,8.24h-12.33l6.08-45.85H227.46z M221.14,53.8
			c-0.6-5.19-1.21-11.61-1.82-19.26c-1.21,8.78-1.98,15.2-2.29,19.26H221.14z"/>
		<path class="st2" d="M236.3,24.32h8.44c5.63,0,9.44,0.22,11.43,0.65c1.99,0.43,3.62,1.54,4.87,3.33c1.25,1.78,1.88,4.63,1.88,8.54
			c0,3.57-0.44,5.97-1.33,7.19c-0.89,1.23-2.63,1.96-5.24,2.21c2.36,0.59,3.95,1.37,4.76,2.35c0.81,0.98,1.32,1.88,1.52,2.7
			c0.2,0.82,0.3,3.08,0.3,6.78v12.09h-11.07V54.93c0-2.45-0.19-3.97-0.58-4.56c-0.39-0.58-1.4-0.88-3.04-0.88v20.67H236.3V24.32z
			 M248.22,32.16v10.2c1.34,0,2.28-0.18,2.82-0.55c0.54-0.37,0.81-1.56,0.81-3.58V35.7c0-1.45-0.26-2.41-0.78-2.86
			C250.55,32.39,249.6,32.16,248.22,32.16z"/>
		<path class="st2" d="M305.01,51.17c0,4.61-0.11,7.87-0.33,9.78c-0.22,1.92-0.9,3.67-2.04,5.25c-1.14,1.59-2.69,2.8-4.63,3.65
			s-4.21,1.27-6.8,1.27c-2.45,0-4.66-0.4-6.61-1.2c-1.96-0.8-3.53-2.01-4.72-3.61c-1.19-1.6-1.9-3.35-2.12-5.24
			c-0.23-1.89-0.34-5.19-0.34-9.91v-7.84c0-4.61,0.11-7.87,0.33-9.78c0.22-1.92,0.9-3.67,2.04-5.25c1.14-1.59,2.69-2.8,4.63-3.65
			s4.21-1.27,6.8-1.27c2.45,0,4.66,0.4,6.61,1.2c1.96,0.8,3.53,2.01,4.72,3.61c1.19,1.6,1.9,3.35,2.12,5.24
			c0.23,1.89,0.34,5.19,0.34,9.91V51.17z M293.08,36.1c0-2.13-0.12-3.5-0.35-4.09c-0.24-0.59-0.72-0.89-1.46-0.89
			c-0.62,0-1.1,0.24-1.43,0.72c-0.33,0.48-0.5,1.9-0.5,4.26v21.41c0,2.66,0.11,4.3,0.33,4.93c0.22,0.62,0.72,0.93,1.52,0.93
			c0.81,0,1.33-0.36,1.56-1.08c0.23-0.72,0.34-2.43,0.34-5.13V36.1z"/>
		<path class="st2" d="M336.07,24.32v45.85h-10.45l-6.2-20.84v20.84h-9.97V24.32h9.97l6.68,20.65V24.32H336.07z"/>
		<path class="st2" d="M351.08,24.32h8.44c5.63,0,9.44,0.22,11.43,0.65c1.99,0.43,3.62,1.54,4.87,3.33
			c1.25,1.78,1.88,4.63,1.88,8.54c0,3.57-0.44,5.97-1.33,7.19c-0.89,1.23-2.63,1.96-5.24,2.21c2.36,0.59,3.95,1.37,4.76,2.35
			c0.81,0.98,1.32,1.88,1.52,2.7c0.2,0.82,0.3,3.08,0.3,6.78v12.09h-11.07V54.93c0-2.45-0.19-3.97-0.58-4.56
			c-0.39-0.58-1.4-0.88-3.04-0.88v20.67h-11.92V24.32z M363.01,32.16v10.2c1.34,0,2.28-0.18,2.82-0.55
			c0.54-0.37,0.81-1.56,0.81-3.58V35.7c0-1.45-0.26-2.41-0.78-2.86C365.33,32.39,364.38,32.16,363.01,32.16z"/>
		<path class="st2" d="M382.32,24.32h19.88v9.18h-7.96v8.69h7.45v8.72h-7.45v10.08H403v9.18h-20.67V24.32z"/>
		<path class="st2" d="M433.04,24.32v45.85h-10.45l-6.2-20.84v20.84h-9.97V24.32h9.97l6.68,20.65V24.32H433.04z"/>
		<path class="st2" d="M461.84,24.32v9.18h-7.08v36.67h-11.92V33.5h-7.05v-9.18H461.84z"/>
	</g>
	<g>
		<path class="st3" d="M186.98,96.06h1.78c1.32,0,1.98,0.46,1.98,1.39c0,0.64-0.23,1.13-0.7,1.48c-0.47,0.35-1.12,0.53-1.94,0.53
			H186c-0.81,0-1.41-0.33-1.78-1c-0.67,0.67-1.38,1-2.14,1h-1.98c-1.16,0-2.08-0.4-2.77-1.19c-0.69-0.79-1.04-1.84-1.04-3.16
			c0-2.01,0.68-3.82,2.05-5.42c1.37-1.6,2.91-2.41,4.62-2.41c1.26,0,2.27,0.45,3.02,1.36l3.48-8.55c0.59-1.46,1.42-2.19,2.48-2.19
			c0.45,0,0.83,0.14,1.14,0.43c0.31,0.29,0.47,0.64,0.47,1.05c0,0.32-0.08,0.69-0.23,1.09l-0.19,0.42L186.98,96.06z M181.26,96.14
			h0.59c0.72,0,1.19-0.29,1.42-0.86l1.17-2.89c0.15-0.35,0.22-0.62,0.22-0.81c0-0.31-0.13-0.58-0.4-0.8s-0.6-0.33-0.99-0.33
			c-0.81,0-1.57,0.45-2.27,1.36s-1.05,1.89-1.05,2.94C179.95,95.68,180.39,96.14,181.26,96.14z"/>
		<path class="st3" d="M196.88,90.94l-0.53,1.31c-0.48,1.17-1.1,1.75-1.88,1.75c-0.47,0-0.86-0.14-1.17-0.42s-0.47-0.63-0.47-1.05
			c0-0.24,0.11-0.65,0.34-1.22l1.77-4.36c0.43-1.05,1.03-1.58,1.81-1.58c0.77,0,1.24,0.36,1.42,1.09l0.12,0.48
			c0.06,0.25,0.16,0.41,0.28,0.47s0.43,0.09,0.92,0.09h3.66c1.36,0,2.05,0.48,2.05,1.44c0,1.32-0.87,1.98-2.59,1.98l-0.17,0.16
			c-1.66,1.58-2.48,2.81-2.48,3.67c0,0.86,0.48,1.3,1.44,1.3h1.97c1.32,0,1.98,0.46,1.98,1.38c0,0.65-0.23,1.15-0.7,1.5
			c-0.46,0.35-1.11,0.53-1.95,0.53h-3.06c-1.04,0-1.89-0.36-2.55-1.08c-0.66-0.72-0.99-1.65-0.99-2.8c0-0.73,0.18-1.44,0.53-2.12
			c0.35-0.69,0.98-1.53,1.88-2.53H196.88z"/>
		<path class="st3" d="M211.98,96.06h1.77c1.31,0,1.97,0.46,1.97,1.39c0,0.64-0.23,1.13-0.7,1.48c-0.46,0.35-1.11,0.53-1.95,0.53
			h-2.48c-0.92,0-1.64-0.19-2.16-0.56c-0.53-0.38-0.79-0.89-0.79-1.53c0-0.34,0.11-0.78,0.33-1.31l2.58-6.34l0.17-0.44
			c0.48-1.18,1.25-1.77,2.31-1.77c0.44,0,0.81,0.15,1.13,0.44c0.32,0.29,0.48,0.64,0.48,1.05c0,0.33-0.14,0.84-0.42,1.53
			L211.98,96.06z M214.04,82.53c0.6,0,1.12,0.21,1.54,0.63s0.63,0.94,0.63,1.54c0,0.6-0.21,1.12-0.63,1.54s-0.94,0.63-1.54,0.63
			c-0.6,0-1.12-0.21-1.54-0.63s-0.63-0.93-0.63-1.54c0-0.6,0.21-1.12,0.63-1.54S213.44,82.53,214.04,82.53z"/>
		<path class="st3" d="M221.85,93.97l3.62-4.94l0.28-0.42c0.6-0.88,1.28-1.31,2.03-1.31c0.49,0,0.89,0.15,1.2,0.46
			c0.31,0.31,0.47,0.7,0.47,1.18c0,0.52-0.31,1.19-0.94,2l-5.78,7.48c-0.65,0.84-1.41,1.27-2.28,1.27c-0.74,0-1.32-0.26-1.75-0.77
			c-0.43-0.52-0.64-1.22-0.64-2.12c0-0.19,0-0.34,0.02-0.45l0.56-6.23c0.07-0.84,0.3-1.49,0.68-1.93c0.38-0.44,0.89-0.66,1.54-0.66
			c0.99,0,1.48,0.5,1.48,1.5c0,0.15-0.02,0.4-0.06,0.75L221.85,93.97z"/>
		<path class="st3" d="M233.99,94.89c0,0.78,0.59,1.17,1.77,1.17h4.64c1.31,0,1.97,0.46,1.97,1.39c0,0.64-0.23,1.13-0.7,1.48
			c-0.46,0.35-1.11,0.53-1.95,0.53h-4.42c-1.65,0-2.9-0.41-3.76-1.22s-1.29-2-1.29-3.56c0-2.01,0.68-3.74,2.04-5.2
			c1.36-1.46,2.98-2.19,4.85-2.19c1.36,0,2.46,0.36,3.29,1.07c0.83,0.71,1.24,1.65,1.24,2.82c0,1.41-0.57,2.45-1.72,3.12
			c-0.64,0.39-1.58,0.58-2.84,0.58H233.99z M234.74,92.05h1.72c1.11,0,1.66-0.24,1.62-0.73c-0.03-0.55-0.39-0.83-1.08-0.83
			C236.05,90.49,235.29,91.01,234.74,92.05z"/>
		<path class="st3" d="M261.4,87.3c1.51,0,2.75,0.48,3.73,1.44c0.97,0.96,1.46,2.18,1.46,3.66c0,1.11-0.26,2.22-0.77,3.32
			c-0.51,1.1-1.17,1.98-1.98,2.63c-0.54,0.43-1.1,0.72-1.68,0.88c-0.58,0.16-1.39,0.24-2.43,0.24c-1.7,0-2.84-0.2-3.44-0.61
			c-1.4-0.96-2.09-2.38-2.09-4.25c0-1.98,0.71-3.69,2.14-5.14C257.76,88.02,259.45,87.3,261.4,87.3z M261.02,90.63
			c-0.77,0-1.47,0.38-2.11,1.14c-0.64,0.76-0.95,1.6-0.95,2.52c0,1.21,0.68,1.81,2.03,1.81c0.79,0,1.4-0.24,1.83-0.73
			c0.71-0.8,1.06-1.72,1.06-2.75c0-0.59-0.17-1.07-0.52-1.44C262.02,90.81,261.57,90.63,261.02,90.63z"/>
		<path class="st3" d="M280.59,96.06h1.88c1.32,0,1.98,0.46,1.98,1.39c0,0.64-0.23,1.13-0.7,1.48c-0.47,0.35-1.12,0.53-1.94,0.53
			h-3.27c-0.64,0-1.17-0.19-1.6-0.58c-0.43-0.39-0.65-0.87-0.65-1.45c0-0.35,0.15-0.89,0.44-1.59l1.38-3.41
			c0.15-0.35,0.22-0.64,0.23-0.86c0.01-0.25-0.09-0.46-0.3-0.64c-0.21-0.18-0.49-0.27-0.82-0.27c-1.07,0-1.94,0.81-2.59,2.42
			l-1.84,4.53c-0.55,1.38-1.38,2.06-2.47,2.06c-0.45,0-0.83-0.14-1.14-0.41s-0.47-0.6-0.47-1c0-0.29,0.08-0.64,0.25-1.05l0.17-0.42
			l3.16-7.78c0.41-1.01,1.1-1.52,2.08-1.52c0.8,0,1.38,0.35,1.72,1.06c1.11-0.85,2.18-1.28,3.19-1.28c0.98,0,1.79,0.28,2.42,0.84
			c0.63,0.56,0.95,1.28,0.95,2.14c0,0.48-0.12,1.01-0.34,1.58L280.59,96.06z"/>
		<path class="st3" d="M304.04,87.52h0.48c1.32,0,1.98,0.46,1.98,1.39c0,0.64-0.23,1.13-0.7,1.48c-0.47,0.35-1.12,0.53-1.94,0.53
			h-1.14l-2.09,5.14h1.75c1.32,0,1.98,0.46,1.98,1.39c0,0.64-0.23,1.13-0.7,1.48c-0.46,0.35-1.11,0.53-1.95,0.53h-2.8
			c-0.79,0-1.42-0.18-1.88-0.55c-0.46-0.36-0.7-0.86-0.7-1.48c0-0.39,0.09-0.81,0.28-1.28l0.3-0.69l1.84-4.55h-0.23
			c-1.17,0-1.75-0.45-1.75-1.36c0-0.65,0.23-1.15,0.7-1.51c0.46-0.36,1.11-0.54,1.95-0.54h0.72l0.83-2.05l0.17-0.42
			c0.49-1.16,1.26-1.73,2.31-1.73c0.43,0,0.79,0.14,1.1,0.43c0.31,0.29,0.46,0.63,0.46,1.04c0,0.4-0.14,0.9-0.41,1.5L304.04,87.52z"
			/>
		<path class="st3" d="M314.97,88.19c1.09-0.59,1.99-0.89,2.7-0.89c1,0,1.82,0.28,2.46,0.84c0.64,0.56,0.96,1.27,0.96,2.13
			c0,0.52-0.12,1.09-0.38,1.7l-1.64,4.09h1.8c1.31,0,1.97,0.46,1.97,1.39c0,0.64-0.23,1.13-0.7,1.48c-0.46,0.35-1.11,0.53-1.95,0.53
			h-3.14c-0.67,0-1.23-0.19-1.68-0.57c-0.45-0.38-0.68-0.85-0.68-1.4c0-0.38,0.12-0.85,0.36-1.44l1.44-3.53
			c0.18-0.45,0.27-0.79,0.27-1.02c0-0.59-0.4-0.89-1.19-0.89c-1.06,0-1.96,0.91-2.69,2.72l-1.75,4.3c-0.55,1.36-1.37,2.05-2.45,2.05
			c-0.43,0-0.79-0.14-1.09-0.41c-0.3-0.27-0.45-0.6-0.45-0.98c0-0.29,0.08-0.64,0.23-1.03l0.17-0.42l6.8-16.77
			c0.59-1.44,1.41-2.16,2.44-2.16c0.43,0,0.79,0.14,1.1,0.43c0.31,0.29,0.46,0.63,0.46,1.04c0,0.33-0.14,0.83-0.41,1.48
			L314.97,88.19z"/>
		<path class="st3" d="M328.79,94.89c0,0.78,0.59,1.17,1.77,1.17h4.64c1.31,0,1.97,0.46,1.97,1.39c0,0.64-0.23,1.13-0.7,1.48
			c-0.46,0.35-1.11,0.53-1.95,0.53h-4.42c-1.65,0-2.9-0.41-3.76-1.22s-1.29-2-1.29-3.56c0-2.01,0.68-3.74,2.04-5.2
			c1.36-1.46,2.98-2.19,4.85-2.19c1.36,0,2.46,0.36,3.29,1.07c0.83,0.71,1.24,1.65,1.24,2.82c0,1.41-0.57,2.45-1.72,3.12
			c-0.64,0.39-1.58,0.58-2.84,0.58H328.79z M329.54,92.05h1.72c1.11,0,1.66-0.24,1.62-0.73c-0.03-0.55-0.39-0.83-1.08-0.83
			C330.84,90.49,330.09,91.01,329.54,92.05z"/>
		<path class="st3" d="M360.36,93.66l3.67-4.78l0.3-0.38c0.61-0.8,1.29-1.2,2.03-1.2c0.47,0,0.85,0.15,1.16,0.46
			c0.3,0.31,0.45,0.7,0.45,1.16c0,0.49-0.32,1.14-0.95,1.94l-5.86,7.38c-0.77,0.97-1.57,1.45-2.39,1.45c-0.68,0-1.25-0.25-1.72-0.77
			c-0.47-0.51-0.7-1.14-0.7-1.88c0-0.19,0.02-0.38,0.05-0.58l0.52-2.81l-3.19,4.58c-0.67,0.97-1.41,1.45-2.22,1.45
			c-0.7,0-1.27-0.27-1.72-0.81c-0.45-0.54-0.67-1.24-0.67-2.09c0-0.12,0-0.23,0.02-0.31l0.44-6.55c0.06-0.84,0.28-1.49,0.66-1.95
			c0.38-0.45,0.9-0.68,1.55-0.68c0.98,0,1.47,0.54,1.47,1.61c0,0.18-0.01,0.38-0.03,0.59l-0.44,4.38l3.48-4.98
			c0.74-1.06,1.6-1.59,2.58-1.59c0.6,0,1.08,0.17,1.44,0.52c0.35,0.34,0.53,0.81,0.53,1.39c0,0.24-0.01,0.42-0.02,0.53L360.36,93.66
			z"/>
		<path class="st3" d="M379.43,96.06h1.72c1.31,0,1.97,0.46,1.97,1.38c0,0.64-0.23,1.13-0.7,1.49s-1.12,0.54-1.94,0.54h-2
			c-0.9,0-1.51-0.35-1.83-1.05c-0.78,0.7-1.54,1.05-2.27,1.05h-1.78c-1.15,0-2.07-0.41-2.77-1.23c-0.7-0.82-1.05-1.89-1.05-3.21
			c0-2,0.69-3.79,2.07-5.37c1.38-1.58,2.94-2.37,4.68-2.37c1.33,0,2.31,0.46,2.92,1.39c0.52-0.78,1.2-1.17,2.05-1.17
			c0.46,0,0.84,0.15,1.15,0.44c0.31,0.29,0.46,0.65,0.46,1.08c0,0.29-0.08,0.64-0.25,1.05l-0.17,0.42L379.43,96.06z M373.76,96.14
			h0.39c0.85,0,1.42-0.35,1.7-1.05l1.09-2.7c0.15-0.35,0.22-0.65,0.22-0.89c0-0.28-0.14-0.53-0.41-0.73
			c-0.28-0.21-0.61-0.31-0.99-0.31c-0.76,0-1.5,0.44-2.22,1.33c-0.72,0.89-1.08,1.8-1.08,2.75
			C372.46,95.61,372.89,96.14,373.76,96.14z"/>
		<path class="st3" d="M394.23,100.11h1.81c1.32,0,1.98,0.46,1.98,1.39c0,0.64-0.23,1.13-0.7,1.48c-0.46,0.35-1.11,0.53-1.95,0.53
			h-2.53c-0.3,0.9-0.85,2.08-1.64,3.56c-1.38,2.6-3.38,3.91-6,3.91c-1.59,0-2.93-0.5-4.02-1.5c-1.08-1-1.62-2.24-1.62-3.72
			c0-1.03,0.29-1.99,0.88-2.88c0.59-0.89,1.36-1.56,2.32-2.01c1.1-0.51,2.73-0.77,4.89-0.77h2.55l0.45-1.12
			c-0.77,0.32-1.48,0.48-2.12,0.48c-1.12,0-2.02-0.28-2.71-0.85c-0.69-0.57-1.04-1.3-1.04-2.21c0-0.55,0.22-1.38,0.67-2.48l1.7-4.2
			l0.17-0.44c0.5-1.18,1.28-1.77,2.33-1.77c0.46,0,0.84,0.15,1.15,0.44c0.31,0.29,0.46,0.66,0.46,1.11c0,0.3-0.14,0.79-0.41,1.47
			l-1.53,3.73c-0.24,0.6-0.37,1-0.38,1.17c-0.03,0.51,0.29,0.77,0.97,0.77c0.48,0,0.97-0.14,1.47-0.42s0.82-0.6,0.95-0.95l2.09-5.11
			l0.16-0.44c0.49-1.18,1.27-1.77,2.33-1.77c0.46,0,0.84,0.15,1.15,0.45c0.31,0.3,0.46,0.66,0.46,1.1c0,0.3-0.08,0.65-0.23,1.05
			l-0.19,0.42L394.23,100.11z M389.12,103.52h-2.19c-2.4,0-3.59,0.75-3.59,2.25c0,0.53,0.16,0.96,0.49,1.28
			c0.33,0.32,0.77,0.48,1.32,0.48c0.76,0,1.43-0.3,2.02-0.89C387.77,106.05,388.42,105.01,389.12,103.52z"/>
	</g>
	<linearGradient id="SVGID_1_" gradientUnits="userSpaceOnUse" x1="402.4358" y1="94.8181" x2="461.8401" y2="94.8181">
		<stop  offset="0" style="stop-color:#FFFFFF;stop-opacity:0"/>
		<stop  offset="0.163" style="stop-color:#FCF4DB;stop-opacity:0.163"/>
		<stop  offset="0.527" style="stop-color:#F5D77F;stop-opacity:0.527"/>
		<stop  offset="1" style="stop-color:#EBB000"/>
	</linearGradient>
	<path class="st4" d="M460.17,96.49H404.1c-0.92,0-1.67-0.75-1.67-1.67v0c0-0.92,0.75-1.67,1.67-1.67h56.07
		c0.92,0,1.67,0.75,1.67,1.67l0,0C461.84,95.74,461.09,96.49,460.17,96.49z"/>
	<linearGradient id="SVGID_2_" gradientUnits="userSpaceOnUse" x1="406.1276" y1="89.4951" x2="461.8401" y2="89.4951">
		<stop  offset="0" style="stop-color:#FFFFFF;stop-opacity:0"/>
		<stop  offset="0.1483" style="stop-color:#FBFDFE;stop-opacity:0.1483"/>
		<stop  offset="0.2828" style="stop-color:#F0F6FB;stop-opacity:0.2828"/>
		<stop  offset="0.4121" style="stop-color:#DEEBF5;stop-opacity:0.4121"/>
		<stop  offset="0.5382" style="stop-color:#C4DBEE;stop-opacity:0.5382"/>
		<stop  offset="0.662" style="stop-color:#A2C7E4;stop-opacity:0.662"/>
		<stop  offset="0.784" style="stop-color:#79AED8;stop-opacity:0.784"/>
		<stop  offset="0.9022" style="stop-color:#4991C9;stop-opacity:0.9022"/>
		<stop  offset="1" style="stop-color:#1C75BC"/>
	</linearGradient>
	<path class="st5" d="M460.17,91.16H407.8c-0.92,0-1.67-0.75-1.67-1.67v0c0-0.92,0.75-1.67,1.67-1.67h52.37
		c0.92,0,1.67,0.75,1.67,1.67v0C461.84,90.42,461.09,91.16,460.17,91.16z"/>
	<linearGradient id="SVGID_3_" gradientUnits="userSpaceOnUse" x1="406.1276" y1="100.1411" x2="461.8401" y2="100.1411">
		<stop  offset="0" style="stop-color:#FFFFFF;stop-opacity:0"/>
		<stop  offset="0.1483" style="stop-color:#FBFDFE;stop-opacity:0.1483"/>
		<stop  offset="0.2828" style="stop-color:#F0F6FB;stop-opacity:0.2828"/>
		<stop  offset="0.4121" style="stop-color:#DEEBF5;stop-opacity:0.4121"/>
		<stop  offset="0.5382" style="stop-color:#C4DBEE;stop-opacity:0.5382"/>
		<stop  offset="0.662" style="stop-color:#A2C7E4;stop-opacity:0.662"/>
		<stop  offset="0.784" style="stop-color:#79AED8;stop-opacity:0.784"/>
		<stop  offset="0.9022" style="stop-color:#4991C9;stop-opacity:0.9022"/>
		<stop  offset="1" style="stop-color:#1C75BC"/>
	</linearGradient>
	<path class="st6" d="M460.17,101.81H407.8c-0.92,0-1.67-0.75-1.67-1.67v0c0-0.92,0.75-1.67,1.67-1.67h52.37
		c0.92,0,1.67,0.75,1.67,1.67v0C461.84,101.06,461.09,101.81,460.17,101.81z"/>
</g>
</svg>
